<svg width="13" height="23" viewBox="0 0 13 23" fill="none" xmlns="http://www.w3.org/2000/svg">
<path d="M6.13534 22.6482C7.26833 22.6467 8.18601 21.7278 8.18601 20.5948V14.305C8.18601 13.2979 9.0024 12.4815 10.0095 12.4815C10.9263 12.4815 11.7006 11.8008 11.8179 10.8915L11.8576 10.5835C12 9.48093 11.1412 8.50419 10.0294 8.50419C9.01133 8.50419 8.18601 7.67887 8.18601 6.66079V5.97085C8.18601 4.82152 8.50469 4.03884 10.1527 4.03884H10.373C11.4045 4.03884 12.2407 3.20264 12.2407 2.17113C12.2407 1.2158 11.5198 0.407558 10.5654 0.363923C10.102 0.342734 9.63808 0.333034 9.17401 0.334844C8.47888 0.284309 7.78111 0.386441 7.12962 0.634079C6.47813 0.881718 5.8887 1.26887 5.40265 1.76839C4.9166 2.2679 4.5457 2.8677 4.31596 3.52571C4.08621 4.18372 4.00316 4.88403 4.07267 5.57752V6.80752C4.07267 7.74824 3.31007 8.51085 2.36934 8.51085C1.42862 8.51085 0.666016 9.27346 0.666016 10.2142V10.7815C0.666016 11.7241 1.43012 12.4882 2.37268 12.4882C3.31525 12.4882 4.07935 13.2523 4.07935 14.1948V20.5948C4.07935 21.7299 5.00028 22.6496 6.13534 22.6482Z" fill="#E77E23"/>
</svg>
