<svg width="23" height="23" viewBox="0 0 23 23" fill="none" xmlns="http://www.w3.org/2000/svg">
<path d="M22.578 6.88998C22.5594 5.96449 22.384 5.04886 22.0593 4.18198C21.78 3.43565 21.3408 2.75942 20.7727 2.20065C20.2149 1.63505 19.5406 1.19779 18.7967 0.919318C17.9298 0.594597 17.0141 0.419223 16.0887 0.400651C14.8993 0.347318 14.5193 0.333984 11.49 0.333984C8.46065 0.333984 8.07932 0.347318 6.88999 0.400651C5.96449 0.419274 5.04886 0.594647 4.18198 0.919318C3.43614 1.1971 2.75995 1.6344 2.20065 2.20065C1.6344 2.75995 1.1971 3.43614 0.919318 4.18198C0.594622 5.04885 0.419248 5.96449 0.400651 6.88998C0.347318 8.07932 0.333984 8.45932 0.333984 11.49C0.333984 14.5206 0.347318 14.8993 0.401984 16.09C0.420556 17.0155 0.595931 17.9311 0.920651 18.798C1.19891 19.5413 1.63569 20.2152 2.20065 20.7726C2.75788 21.3402 3.43223 21.7793 4.17665 22.0593C5.0435 22.3841 5.95915 22.5595 6.88465 22.578C8.07399 22.6326 8.45399 22.6446 11.4847 22.6446C14.5153 22.6446 14.894 22.6313 16.0847 22.578C17.0102 22.5594 17.9258 22.3841 18.7927 22.0593C19.5338 21.7728 20.2069 21.3346 20.7687 20.7727C21.3306 20.2108 21.7688 19.5378 22.0553 18.7966C22.38 17.9298 22.5554 17.0141 22.574 16.0886C22.6287 14.8993 22.6407 14.5193 22.6407 11.4886C22.6407 8.45798 22.6273 8.07932 22.574 6.88865L22.578 6.88998ZM20.57 15.998C20.5617 16.7056 20.4318 17.4064 20.186 18.07C20.0001 18.551 19.7155 18.9878 19.3506 19.3522C18.9857 19.7167 18.5486 20.0007 18.0673 20.186C17.4038 20.4318 16.7029 20.5617 15.9953 20.57C14.8193 20.6233 14.466 20.6353 11.4873 20.6353C8.50865 20.6353 8.15399 20.6246 6.97932 20.57C6.27175 20.5617 5.57088 20.4318 4.90732 20.186C4.42278 20.0071 3.98449 19.7219 3.62465 19.3513C3.25407 18.9915 2.96886 18.5532 2.78998 18.0686C2.54415 17.4051 2.41426 16.7042 2.40598 15.9966C2.35265 14.8206 2.34065 14.4673 2.34065 11.4886C2.34065 8.50998 2.35265 8.15532 2.40598 6.98065C2.41437 6.27309 2.54426 5.57223 2.78998 4.90865C2.9699 4.42436 3.25601 3.98653 3.62732 3.62732C3.98707 3.25667 4.42539 2.97144 4.90998 2.79265C5.57352 2.54679 6.27441 2.4169 6.98199 2.40865C8.15799 2.35532 8.51132 2.34332 11.49 2.34332C14.4687 2.34332 14.8233 2.35532 15.998 2.40865C16.7056 2.41695 17.4064 2.54685 18.07 2.79265C18.5545 2.97161 18.9928 3.25681 19.3527 3.62732C19.7233 3.9871 20.0085 4.42541 20.1873 4.90998C20.4333 5.5735 20.5632 6.2744 20.5713 6.98198C20.6247 8.15798 20.6367 8.51132 20.6367 11.49C20.6367 14.4686 20.6233 14.8206 20.57 15.998Z" fill="#E77E23"/>
<path d="M11.4892 5.75977C10.3553 5.75977 9.24676 6.09602 8.30392 6.726C7.36108 7.35599 6.62623 8.25141 6.19229 9.29904C5.75835 10.3467 5.6448 11.4995 5.86603 12.6116C6.08725 13.7238 6.6333 14.7454 7.43512 15.5472C8.23694 16.349 9.25852 16.895 10.3707 17.1163C11.4828 17.3375 12.6356 17.2239 13.6833 16.79C14.7309 16.3561 15.6263 15.6212 16.2563 14.6784C16.8863 13.7355 17.2225 12.627 17.2225 11.4931C17.2225 9.97253 16.6185 8.51422 15.5433 7.43902C14.4681 6.36381 13.0098 5.75977 11.4892 5.75977ZM11.4892 15.2064C10.7537 15.2064 10.0347 14.9883 9.42321 14.5797C8.81168 14.1711 8.33505 13.5903 8.0536 12.9108C7.77214 12.2313 7.69849 11.4836 7.84198 10.7623C7.98546 10.0409 8.33963 9.37833 8.8597 8.85827C9.37976 8.3382 10.0424 7.98403 10.7637 7.84055C11.4851 7.69706 12.2328 7.77071 12.9123 8.05216C13.5918 8.33362 14.1725 8.81025 14.5811 9.42178C14.9898 10.0333 15.2079 10.7523 15.2079 11.4878C15.2079 12.474 14.8161 13.4199 14.1187 14.1172C13.4213 14.8146 12.4755 15.2064 11.4892 15.2064Z" fill="#E77E23"/>
<path d="M18.7838 5.53451C18.7838 5.79821 18.7057 6.056 18.5591 6.27527C18.4126 6.49453 18.2044 6.66543 17.9608 6.76635C17.7171 6.86726 17.4491 6.89367 17.1904 6.84222C16.9318 6.79078 16.6942 6.66379 16.5077 6.47732C16.3212 6.29085 16.1943 6.05327 16.1428 5.79463C16.0914 5.53599 16.1178 5.2679 16.2187 5.02426C16.3196 4.78063 16.4905 4.57239 16.7097 4.42588C16.929 4.27937 17.1868 4.20117 17.4505 4.20117C17.8041 4.20117 18.1433 4.34165 18.3933 4.5917C18.6434 4.84174 18.7838 5.18088 18.7838 5.53451Z" fill="#E77E23"/>
</svg>
