<svg width="24" height="25" viewBox="0 0 24 25" fill="none" xmlns="http://www.w3.org/2000/svg">
<path d="M12 21.4996C10.7369 20.4222 9.56619 19.2411 8.5 17.9686C6.9 16.0576 5 13.2116 5 10.4996C4.99931 9.11456 5.40951 7.76045 6.17869 6.60863C6.94788 5.45681 8.04147 4.55906 9.32107 4.029C10.6007 3.49894 12.0087 3.36039 13.3671 3.6309C14.7255 3.9014 15.9731 4.56879 16.952 5.5486C17.6038 6.19746 18.1203 6.96914 18.4719 7.81898C18.8234 8.66881 19.0029 9.57993 19 10.4996C19 13.2116 17.1 16.0576 15.5 17.9686C14.4338 19.2411 13.2631 20.4222 12 21.4996ZM12 7.4996C11.2044 7.4996 10.4413 7.81567 9.87868 8.37828C9.31607 8.94089 9 9.70395 9 10.4996C9 11.2953 9.31607 12.0583 9.87868 12.6209C10.4413 13.1835 11.2044 13.4996 12 13.4996C12.7957 13.4996 13.5587 13.1835 14.1213 12.6209C14.6839 12.0583 15 11.2953 15 10.4996C15 9.70395 14.6839 8.94089 14.1213 8.37828C13.5587 7.81567 12.7957 7.4996 12 7.4996Z" fill="#E77E23"/>
</svg>
