<svg width="24" height="25" viewBox="0 0 24 25" fill="none" xmlns="http://www.w3.org/2000/svg">
<path d="M21.75 4.25H2.25C1.83516 4.25 1.5 4.58516 1.5 5V20C1.5 20.4148 1.83516 20.75 2.25 20.75H21.75C22.1648 20.75 22.5 20.4148 22.5 20V5C22.5 4.58516 22.1648 4.25 21.75 4.25ZM20.8125 6.84687V19.0625H3.1875V6.84687L2.54063 6.34297L3.46172 5.15938L4.46484 5.93984H19.5375L20.5406 5.15938L21.4617 6.34297L20.8125 6.84687ZM19.5375 5.9375L12 11.7969L4.4625 5.9375L3.45938 5.15703L2.53828 6.34062L3.18516 6.84453L11.1914 13.0695C11.4217 13.2484 11.7049 13.3455 11.9965 13.3455C12.2881 13.3455 12.5713 13.2484 12.8016 13.0695L20.8125 6.84687L21.4594 6.34297L20.5383 5.15938L19.5375 5.9375Z" fill="#E77E23"/>
</svg>
