<svg width="24" height="25" viewBox="0 0 24 25" fill="none" xmlns="http://www.w3.org/2000/svg">
<g clip-path="url(#clip0_19_255)">
<path d="M5.48171 2.49244C5.39316 2.37853 5.28138 2.28477 5.15381 2.21738C5.02624 2.14999 4.88579 2.11051 4.74178 2.10158C4.59778 2.09264 4.45353 2.11444 4.3186 2.16554C4.18367 2.21664 4.06116 2.29586 3.95921 2.39794L2.40821 3.95044C1.68371 4.67644 1.41671 5.70394 1.73321 6.60544C3.04682 10.3368 5.18365 13.7246 7.98521 16.5174C10.7781 19.319 14.1658 21.4558 17.8972 22.7694C18.7987 23.0859 19.8262 22.8189 20.5522 22.0944L22.1032 20.5434C22.2053 20.4415 22.2845 20.319 22.3356 20.184C22.3867 20.0491 22.4085 19.9049 22.3996 19.7609C22.3906 19.6169 22.3512 19.4764 22.2838 19.3488C22.2164 19.2213 22.1226 19.1095 22.0087 19.0209L18.5482 16.3299C18.4265 16.2356 18.285 16.17 18.1343 16.1383C17.9836 16.1066 17.8276 16.1096 17.6782 16.1469L14.3932 16.9674C13.9547 17.077 13.4953 17.0712 13.0598 16.9506C12.6242 16.8299 12.2273 16.5985 11.9077 16.2789L8.22371 12.5934C7.90386 12.274 7.6722 11.8772 7.55128 11.4416C7.43036 11.006 7.4243 10.5466 7.53371 10.1079L8.35571 6.82294C8.39307 6.67354 8.39601 6.5176 8.36431 6.36689C8.33261 6.21618 8.26709 6.07464 8.17271 5.95294L5.48171 2.49244ZM2.82671 1.26694C3.0892 1.00437 3.40455 0.800638 3.75182 0.669284C4.09908 0.537931 4.47032 0.481958 4.84088 0.505082C5.21144 0.528206 5.57284 0.629899 5.90108 0.803408C6.22932 0.976916 6.5169 1.21827 6.74471 1.51144L9.43571 4.97044C9.92921 5.60494 10.1032 6.43144 9.90821 7.21144L9.08771 10.4964C9.04529 10.6666 9.04758 10.8448 9.09436 11.0138C9.14114 11.1828 9.23083 11.3368 9.35471 11.4609L13.0402 15.1464C13.1645 15.2706 13.3187 15.3604 13.488 15.4072C13.6573 15.454 13.8358 15.4561 14.0062 15.4134L17.2897 14.5929C17.6746 14.4967 18.0764 14.4892 18.4646 14.5711C18.8529 14.6529 19.2174 14.822 19.5307 15.0654L22.9897 17.7564C24.2332 18.7239 24.3472 20.5614 23.2342 21.6729L21.6832 23.2239C20.5732 24.3339 18.9142 24.8214 17.3677 24.2769C13.4095 22.8842 9.81561 20.6182 6.85271 17.6469C3.88164 14.6845 1.61562 11.0911 0.222706 7.13344C-0.320294 5.58844 0.167206 3.92794 1.27721 2.81794L2.82821 1.26694H2.82671Z" fill="#E77E23"/>
</g>
<defs>
<clipPath id="clip0_19_255">
<rect width="24" height="24" fill="white" transform="translate(0 0.5)"/>
</clipPath>
</defs>
</svg>
