<svg width="23" height="17" viewBox="0 0 23 17" fill="none" xmlns="http://www.w3.org/2000/svg">
<path d="M11.3206 16.3888C8.44708 16.4232 5.57449 16.2659 2.72191 15.9182C2.25798 15.7924 1.83504 15.5475 1.49516 15.2076C1.15528 14.8677 0.910294 14.4448 0.784573 13.9808C0.473044 12.2361 0.321747 10.4665 0.332574 8.69415C0.322429 6.9223 0.473721 5.15321 0.784573 3.40882C0.913284 2.94448 1.15899 2.52093 1.49819 2.17869C1.83739 1.83646 2.25873 1.58699 2.72191 1.45415C5.57545 1.11896 8.4476 0.967534 11.3206 1.00082C14.1941 0.96605 17.0667 1.12329 19.9192 1.47148C20.3832 1.59708 20.8062 1.84202 21.1461 2.18192C21.486 2.52182 21.731 2.94482 21.8566 3.40882C22.1778 5.15814 22.3296 6.93436 22.3099 8.71282C22.3201 10.4847 22.1688 12.2538 21.8579 13.9982C21.7319 14.462 21.4866 14.8848 21.1465 15.2244C20.8064 15.5641 20.3833 15.8088 19.9192 15.9342C17.0657 16.2698 14.1936 16.4217 11.3206 16.3888ZM9.13257 5.40082V11.9888L14.8526 8.69415L9.13257 5.40082Z" fill="#E77E23"/>
</svg>
