<svg width="215" height="38" viewBox="0 0 215 38" fill="none" xmlns="http://www.w3.org/2000/svg">
<path d="M7.46094 37H0.3125V2.73438H19.9531V8.6875H7.46094V17.5234H19.0859V23.4531H7.46094V37ZM49.9062 23.8516C49.9062 26.0391 49.6094 27.9766 49.0156 29.6641C48.4375 31.3516 47.5859 32.7812 46.4609 33.9531C45.3516 35.1094 44.0078 35.9844 42.4297 36.5781C40.8672 37.1719 39.1016 37.4688 37.1328 37.4688C35.2891 37.4688 33.5938 37.1719 32.0469 36.5781C30.5156 35.9844 29.1797 35.1094 28.0391 33.9531C26.9141 32.7812 26.0391 31.3516 25.4141 29.6641C24.8047 27.9766 24.5 26.0391 24.5 23.8516C24.5 20.9453 25.0156 18.4844 26.0469 16.4688C27.0781 14.4531 28.5469 12.9219 30.4531 11.875C32.3594 10.8281 34.6328 10.3047 37.2734 10.3047C39.7266 10.3047 41.8984 10.8281 43.7891 11.875C45.6953 12.9219 47.1875 14.4531 48.2656 16.4688C49.3594 18.4844 49.9062 20.9453 49.9062 23.8516ZM31.7891 23.8516C31.7891 25.5703 31.9766 27.0156 32.3516 28.1875C32.7266 29.3594 33.3125 30.2422 34.1094 30.8359C34.9062 31.4297 35.9453 31.7266 37.2266 31.7266C38.4922 31.7266 39.5156 31.4297 40.2969 30.8359C41.0938 30.2422 41.6719 29.3594 42.0312 28.1875C42.4062 27.0156 42.5938 25.5703 42.5938 23.8516C42.5938 22.1172 42.4062 20.6797 42.0312 19.5391C41.6719 18.3828 41.0938 17.5156 40.2969 16.9375C39.5 16.3594 38.4609 16.0703 37.1797 16.0703C35.2891 16.0703 33.9141 16.7188 33.0547 18.0156C32.2109 19.3125 31.7891 21.2578 31.7891 23.8516ZM79.625 23.8516C79.625 26.0391 79.3281 27.9766 78.7344 29.6641C78.1562 31.3516 77.3047 32.7812 76.1797 33.9531C75.0703 35.1094 73.7266 35.9844 72.1484 36.5781C70.5859 37.1719 68.8203 37.4688 66.8516 37.4688C65.0078 37.4688 63.3125 37.1719 61.7656 36.5781C60.2344 35.9844 58.8984 35.1094 57.7578 33.9531C56.6328 32.7812 55.7578 31.3516 55.1328 29.6641C54.5234 27.9766 54.2188 26.0391 54.2188 23.8516C54.2188 20.9453 54.7344 18.4844 55.7656 16.4688C56.7969 14.4531 58.2656 12.9219 60.1719 11.875C62.0781 10.8281 64.3516 10.3047 66.9922 10.3047C69.4453 10.3047 71.6172 10.8281 73.5078 11.875C75.4141 12.9219 76.9062 14.4531 77.9844 16.4688C79.0781 18.4844 79.625 20.9453 79.625 23.8516ZM61.5078 23.8516C61.5078 25.5703 61.6953 27.0156 62.0703 28.1875C62.4453 29.3594 63.0312 30.2422 63.8281 30.8359C64.625 31.4297 65.6641 31.7266 66.9453 31.7266C68.2109 31.7266 69.2344 31.4297 70.0156 30.8359C70.8125 30.2422 71.3906 29.3594 71.75 28.1875C72.125 27.0156 72.3125 25.5703 72.3125 23.8516C72.3125 22.1172 72.125 20.6797 71.75 19.5391C71.3906 18.3828 70.8125 17.5156 70.0156 16.9375C69.2188 16.3594 68.1797 16.0703 66.8984 16.0703C65.0078 16.0703 63.6328 16.7188 62.7734 18.0156C61.9297 19.3125 61.5078 21.2578 61.5078 23.8516ZM93.8281 37.4688C90.9062 37.4688 88.5234 36.3281 86.6797 34.0469C84.8516 31.75 83.9375 28.3828 83.9375 23.9453C83.9375 19.4609 84.8672 16.0703 86.7266 13.7734C88.5859 11.4609 91.0156 10.3047 94.0156 10.3047C95.2656 10.3047 96.3672 10.4766 97.3203 10.8203C98.2734 11.1641 99.0938 11.625 99.7812 12.2031C100.484 12.7812 101.078 13.4297 101.562 14.1484H101.797C101.703 13.6484 101.586 12.9141 101.445 11.9453C101.32 10.9609 101.258 9.95312 101.258 8.92188V0.53125H108.43V37H102.945L101.562 33.6016H101.258C100.805 34.3203 100.234 34.9766 99.5469 35.5703C98.875 36.1484 98.0703 36.6094 97.1328 36.9531C96.1953 37.2969 95.0938 37.4688 93.8281 37.4688ZM96.3359 31.7734C98.2891 31.7734 99.6641 31.1953 100.461 30.0391C101.273 28.8672 101.703 27.1094 101.75 24.7656V23.9922C101.75 21.4453 101.359 19.5 100.578 18.1562C99.7969 16.7969 98.3438 16.1172 96.2188 16.1172C94.6406 16.1172 93.4062 16.7969 92.5156 18.1562C91.625 19.5156 91.1797 21.4766 91.1797 24.0391C91.1797 26.6016 91.625 28.5312 92.5156 29.8281C93.4219 31.125 94.6953 31.7734 96.3359 31.7734Z" fill="#E77E23"/>
<path d="M130.789 10.3047C133.586 10.3047 135.836 11.0703 137.539 12.6016C139.242 14.1172 140.094 16.5547 140.094 19.9141V37H132.945V21.6953C132.945 19.8203 132.602 18.4062 131.914 17.4531C131.242 16.5 130.18 16.0234 128.727 16.0234C126.539 16.0234 125.047 16.7656 124.25 18.25C123.453 19.7344 123.055 21.875 123.055 24.6719V37H115.906V10.7969H121.367L122.328 14.1484H122.727C123.289 13.2422 123.984 12.5078 124.812 11.9453C125.656 11.3828 126.586 10.9688 127.602 10.7031C128.633 10.4375 129.695 10.3047 130.789 10.3047ZM171.266 23.8516C171.266 26.0391 170.969 27.9766 170.375 29.6641C169.797 31.3516 168.945 32.7812 167.82 33.9531C166.711 35.1094 165.367 35.9844 163.789 36.5781C162.227 37.1719 160.461 37.4688 158.492 37.4688C156.648 37.4688 154.953 37.1719 153.406 36.5781C151.875 35.9844 150.539 35.1094 149.398 33.9531C148.273 32.7812 147.398 31.3516 146.773 29.6641C146.164 27.9766 145.859 26.0391 145.859 23.8516C145.859 20.9453 146.375 18.4844 147.406 16.4688C148.438 14.4531 149.906 12.9219 151.812 11.875C153.719 10.8281 155.992 10.3047 158.633 10.3047C161.086 10.3047 163.258 10.8281 165.148 11.875C167.055 12.9219 168.547 14.4531 169.625 16.4688C170.719 18.4844 171.266 20.9453 171.266 23.8516ZM153.148 23.8516C153.148 25.5703 153.336 27.0156 153.711 28.1875C154.086 29.3594 154.672 30.2422 155.469 30.8359C156.266 31.4297 157.305 31.7266 158.586 31.7266C159.852 31.7266 160.875 31.4297 161.656 30.8359C162.453 30.2422 163.031 29.3594 163.391 28.1875C163.766 27.0156 163.953 25.5703 163.953 23.8516C163.953 22.1172 163.766 20.6797 163.391 19.5391C163.031 18.3828 162.453 17.5156 161.656 16.9375C160.859 16.3594 159.82 16.0703 158.539 16.0703C156.648 16.0703 155.273 16.7188 154.414 18.0156C153.57 19.3125 153.148 21.2578 153.148 23.8516ZM198.711 37L196.695 27.8359C196.586 27.2891 196.406 26.4844 196.156 25.4219C195.906 24.3438 195.633 23.1953 195.336 21.9766C195.055 20.7422 194.789 19.6016 194.539 18.5547C194.305 17.5078 194.133 16.7422 194.023 16.2578H193.812C193.703 16.7422 193.531 17.5078 193.297 18.5547C193.062 19.6016 192.797 20.7422 192.5 21.9766C192.219 23.2109 191.953 24.375 191.703 25.4688C191.453 26.5469 191.266 27.3672 191.141 27.9297L189.031 37H181.344L173.891 10.7969H181.016L184.039 22.3984C184.242 23.2109 184.438 24.1797 184.625 25.3047C184.812 26.4141 184.977 27.4922 185.117 28.5391C185.273 29.5703 185.391 30.3906 185.469 31H185.656C185.688 30.5469 185.75 29.9453 185.844 29.1953C185.953 28.4453 186.07 27.6719 186.195 26.875C186.336 26.0625 186.461 25.3359 186.57 24.6953C186.695 24.0391 186.789 23.5938 186.852 23.3594L190.086 10.7969H197.961L201.031 23.3594C201.141 23.8125 201.281 24.5312 201.453 25.5156C201.641 26.5 201.805 27.5156 201.945 28.5625C202.086 29.5938 202.164 30.4062 202.18 31H202.367C202.43 30.4688 202.539 29.6797 202.695 28.6328C202.852 27.5859 203.031 26.4922 203.234 25.3516C203.453 24.1953 203.672 23.2109 203.891 22.3984L207.031 10.7969H214.039L206.492 37H198.711Z" fill="#F8F8F6"/>
</svg>
