<svg width="239" height="42" viewBox="0 0 239 42" fill="none" xmlns="http://www.w3.org/2000/svg">
<path d="M8.76926 41H0.804795V2.82277H22.6875V9.45548H8.76926V19.3001H21.7213V25.9067H8.76926V41ZM56.0599 26.3506C56.0599 28.7878 55.7292 30.9465 55.0676 32.8266C54.4235 34.7068 53.4747 36.2997 52.2213 37.6053C50.9853 38.8936 49.4882 39.8684 47.7299 40.53C45.989 41.1915 44.0218 41.5223 41.8283 41.5223C39.7741 41.5223 37.8853 41.1915 36.1618 40.53C34.4558 39.8684 32.9673 38.8936 31.6965 37.6053C30.4431 36.2997 29.4682 34.7068 28.7718 32.8266C28.0929 30.9465 27.7534 28.7878 27.7534 26.3506C27.7534 23.1126 28.3279 20.3707 29.4769 18.125C30.6259 15.8793 32.2623 14.1732 34.3861 13.0068C36.51 11.8405 39.043 11.2573 41.985 11.2573C44.7182 11.2573 47.138 11.8405 49.2444 13.0068C51.3683 14.1732 53.0308 15.8793 54.232 18.125C55.4506 20.3707 56.0599 23.1126 56.0599 26.3506ZM35.8746 26.3506C35.8746 28.2656 36.0835 29.8759 36.5013 31.1815C36.9191 32.4872 37.5719 33.4707 38.4598 34.1323C39.3476 34.7938 40.5053 35.1246 41.9328 35.1246C43.3429 35.1246 44.4832 34.7938 45.3536 34.1323C46.2414 33.4707 46.8856 32.4872 47.286 31.1815C47.7038 29.8759 47.9127 28.2656 47.9127 26.3506C47.9127 24.4182 47.7038 22.8166 47.286 21.5458C46.8856 20.2576 46.2414 19.2914 45.3536 18.6473C44.4658 18.0031 43.3081 17.6811 41.8806 17.6811C39.7741 17.6811 38.2422 18.4035 37.2847 19.8485C36.3446 21.2934 35.8746 23.4608 35.8746 26.3506ZM89.1712 26.3506C89.1712 28.7878 88.8405 30.9465 88.1789 32.8266C87.5348 34.7068 86.586 36.2997 85.3326 37.6053C84.0966 38.8936 82.5995 39.8684 80.8412 40.53C79.1003 41.1915 77.1331 41.5223 74.9396 41.5223C72.8854 41.5223 70.9966 41.1915 69.2731 40.53C67.5671 39.8684 66.0786 38.8936 64.8078 37.6053C63.5544 36.2997 62.5795 34.7068 61.8831 32.8266C61.2042 30.9465 60.8647 28.7878 60.8647 26.3506C60.8647 23.1126 61.4392 20.3707 62.5882 18.125C63.7372 15.8793 65.3736 14.1732 67.4974 13.0068C69.6213 11.8405 72.1543 11.2573 75.0963 11.2573C77.8295 11.2573 80.2493 11.8405 82.3557 13.0068C84.4796 14.1732 86.1421 15.8793 87.3433 18.125C88.5619 20.3707 89.1712 23.1126 89.1712 26.3506ZM68.9859 26.3506C68.9859 28.2656 69.1948 29.8759 69.6126 31.1815C70.0304 32.4872 70.6832 33.4707 71.5711 34.1323C72.4589 34.7938 73.6166 35.1246 75.0441 35.1246C76.4542 35.1246 77.5945 34.7938 78.4649 34.1323C79.3527 33.4707 79.9969 32.4872 80.3973 31.1815C80.8151 29.8759 81.024 28.2656 81.024 26.3506C81.024 24.4182 80.8151 22.8166 80.3973 21.5458C79.9969 20.2576 79.3527 19.2914 78.4649 18.6473C77.5771 18.0031 76.4194 17.6811 74.9919 17.6811C72.8854 17.6811 71.3535 18.4035 70.396 19.8485C69.4559 21.2934 68.9859 23.4608 68.9859 26.3506ZM104.996 41.5223C101.74 41.5223 99.0855 40.2514 97.0313 37.7098C94.9944 35.1507 93.976 31.3991 93.976 26.4551C93.976 21.4588 95.0118 17.6811 97.0835 15.122C99.1551 12.5455 101.862 11.2573 105.205 11.2573C106.597 11.2573 107.825 11.4488 108.887 11.8318C109.948 12.2148 110.862 12.7283 111.628 13.3724C112.412 14.0166 113.073 14.739 113.613 15.5398H113.874C113.77 14.9827 113.639 14.1645 113.482 13.0852C113.343 11.9884 113.274 10.8656 113.274 9.71661V0.368149H121.264V41H115.154L113.613 37.2136H113.274C112.769 38.0144 112.133 38.7456 111.367 39.4071C110.619 40.0512 109.722 40.5648 108.678 40.9478C107.633 41.3308 106.406 41.5223 104.996 41.5223ZM107.79 35.1768C109.966 35.1768 111.498 34.5327 112.386 33.2444C113.291 31.9388 113.77 29.9803 113.822 27.369V26.5073C113.822 23.6697 113.387 21.5023 112.516 20.0051C111.646 18.4906 110.027 17.7333 107.659 17.7333C105.901 17.7333 104.526 18.4906 103.533 20.0051C102.541 21.5197 102.045 23.7045 102.045 26.5595C102.045 29.4145 102.541 31.5645 103.533 33.0094C104.543 34.4543 105.962 35.1768 107.79 35.1768Z" fill="#E77E23"/>
<path d="M146.176 11.2573C149.292 11.2573 151.799 12.1103 153.697 13.8164C155.594 15.505 156.543 18.2207 156.543 21.9636V41H148.578V23.9482C148.578 21.8592 148.195 20.2837 147.429 19.2217C146.681 18.1598 145.497 17.6289 143.878 17.6289C141.441 17.6289 139.778 18.4558 138.89 20.1096C138.003 21.7634 137.559 24.1484 137.559 27.2646V41H129.594V11.8056H135.679L136.749 15.5398H137.193C137.82 14.5301 138.594 13.7119 139.517 13.0852C140.457 12.4585 141.493 11.9971 142.625 11.7012C143.774 11.4053 144.957 11.2573 146.176 11.2573ZM191.273 26.3506C191.273 28.7878 190.942 30.9465 190.281 32.8266C189.637 34.7068 188.688 36.2997 187.435 37.6053C186.198 38.8936 184.701 39.8684 182.943 40.53C181.202 41.1915 179.235 41.5223 177.042 41.5223C174.987 41.5223 173.098 41.1915 171.375 40.53C169.669 39.8684 168.181 38.8936 166.91 37.6053C165.656 36.2997 164.681 34.7068 163.985 32.8266C163.306 30.9465 162.967 28.7878 162.967 26.3506C162.967 23.1126 163.541 20.3707 164.69 18.125C165.839 15.8793 167.475 14.1732 169.599 13.0068C171.723 11.8405 174.256 11.2573 177.198 11.2573C179.931 11.2573 182.351 11.8405 184.458 13.0068C186.581 14.1732 188.244 15.8793 189.445 18.125C190.664 20.3707 191.273 23.1126 191.273 26.3506ZM171.088 26.3506C171.088 28.2656 171.297 29.8759 171.714 31.1815C172.132 32.4872 172.785 33.4707 173.673 34.1323C174.561 34.7938 175.718 35.1246 177.146 35.1246C178.556 35.1246 179.696 34.7938 180.567 34.1323C181.455 33.4707 182.099 32.4872 182.499 31.1815C182.917 29.8759 183.126 28.2656 183.126 26.3506C183.126 24.4182 182.917 22.8166 182.499 21.5458C182.099 20.2576 181.455 19.2914 180.567 18.6473C179.679 18.0031 178.521 17.6811 177.094 17.6811C174.987 17.6811 173.455 18.4035 172.498 19.8485C171.558 21.2934 171.088 23.4608 171.088 26.3506ZM221.851 41L219.606 30.7898C219.484 30.1805 219.284 29.284 219.005 28.1002C218.727 26.899 218.422 25.6194 218.091 24.2616C217.778 22.8863 217.482 21.6154 217.203 20.4491C216.942 19.2827 216.751 18.4297 216.629 17.89H216.394C216.272 18.4297 216.08 19.2827 215.819 20.4491C215.558 21.6154 215.262 22.8863 214.932 24.2616C214.618 25.6368 214.322 26.9338 214.044 28.1524C213.765 29.3536 213.556 30.2676 213.417 30.8943L211.067 41H202.502L194.198 11.8056H202.136L205.505 24.7316C205.731 25.6368 205.949 26.7162 206.158 27.9696C206.366 29.2056 206.549 30.4068 206.706 31.5732C206.88 32.7222 207.011 33.6361 207.098 34.3151H207.307C207.341 33.8102 207.411 33.14 207.515 32.3044C207.637 31.4687 207.768 30.607 207.907 29.7192C208.064 28.8139 208.203 28.0044 208.325 27.2907C208.464 26.5595 208.569 26.0634 208.638 25.8022L212.242 11.8056H221.016L224.437 25.8022C224.559 26.3071 224.715 27.1079 224.907 28.2046C225.116 29.3014 225.298 30.4329 225.455 31.5993C225.612 32.7483 225.699 33.6535 225.716 34.3151H225.925C225.995 33.7232 226.117 32.844 226.291 31.6777C226.465 30.5113 226.665 29.2927 226.891 28.0218C227.135 26.7336 227.379 25.6368 227.622 24.7316L231.122 11.8056H238.929L230.521 41H221.851Z" fill="#333333"/>
</svg>
